<?xml version="1.0" encoding="utf-8"?>
<!-- Generator: Adobe Illustrator 16.0.0, SVG Export Plug-In . SVG Version: 6.00 Build 0)  -->
<!DOCTYPE svg PUBLIC "-//W3C//DTD SVG 1.1//EN" "http://www.w3.org/Graphics/SVG/1.1/DTD/svg11.dtd">
<svg version="1.1" id="Calque_1" xmlns="http://www.w3.org/2000/svg" xmlns:xlink="http://www.w3.org/1999/xlink" x="0px" y="0px"
	 width="112px" height="28px" viewBox="0 0 112 28" enable-background="new 0 0 112 28" xml:space="preserve">
<path fill="none" stroke="#010101" d="M66.048,0.844c-0.998-0.266-2.747,1.857-3.216,4.008c-0.146,0.655-0.255,2.029-0.35,3.761
	c-2.362,1.512-5.041,3.001-5.669,5.643c-0.604,2.414,0.141,5.848,3.659,6.652c0.539,0.125,1.04,0.172,1.497,0.16
	c-0.097,1.836-0.214,3.275-0.367,3.916c-0.588,2.529-3.973,1.992-3.784,0.504c0.705,0.139,1.394-0.287,1.557-0.975
	c0.169-0.701-0.277-1.41-1-1.582c-0.396-0.096-0.794-0.004-1.097,0.211c-0.007,0.006-0.014,0.008-0.021,0.014
	c-0.068,0.043-0.128,0.1-0.192,0.166c-0.209,0.217-0.389,0.553-0.517,1.066c-0.503,2.119,4.526,4.752,5.517,0.576
	c0.144-0.559,0.239-2.043,0.315-3.922c4.146-0.473,4.535-6.371,1.028-7.235c-0.273-0.061-0.543-0.092-0.813-0.088
	c0.031-1.011,0.058-1.992,0.095-2.89c1.646-0.993,3.216-2.414,3.932-5.548C67.16,3.038,66.839,1.059,66.048,0.844L66.048,0.844z
	 M65.771,3.072c0.463,0.064,0.724,0.573,0.504,1.503c-0.343,1.607-1.794,2.737-3.461,3.823c0.055-0.799,0.12-1.441,0.198-1.813
	C63.645,4.099,64.995,2.966,65.771,3.072L65.771,3.072z M62.368,11.016c-0.034,0.876-0.069,1.8-0.102,2.73
	c-2.523,0.274-4.41,3.252-1.457,5.484c-1.603-2.189-0.132-3.977,1.4-3.988c-0.068,1.908-0.14,3.787-0.222,5.408
	c-0.422,0.045-0.896,0.014-1.43-0.107c-1.331-0.318-3.789-1.797-3.027-5.004C58.169,12.854,60.292,12.203,62.368,11.016
	L62.368,11.016z M62.553,15.264c0.061,0.012,0.123,0.027,0.181,0.043c2.42,0.576,2.422,4.639-0.337,5.281
	C62.455,18.975,62.504,17.117,62.553,15.264L62.553,15.264z"/>
<g>
	<g transform="translate(33.05999755859375, 118.4000015258789)">
		<path fill="#FFFFFF" stroke="#000000" d="M-5.581-113.153c-0.85-0.524-2.154-0.786-3.911-0.786c-1.756,0-3.349,0.485-4.78,1.454
			c-0.714,0.477-1.294,1.069-1.74,1.777c-0.444,0.707-0.667,1.514-0.667,2.421c0,1.397,0.541,2.535,1.621,3.408
			c0.461,0.384,0.958,0.71,1.49,0.978c0.532,0.27,1.029,0.545,1.49,0.822c0.461,0.279,0.847,0.594,1.155,0.943
			c0.311,0.35,0.465,0.768,0.465,1.252s-0.242,0.941-0.727,1.369c-0.485,0.43-1.021,0.646-1.609,0.646
			c-0.907,0-1.36-0.637-1.36-1.908c0-0.588,0.127-1.209,0.383-1.859c-0.557-0.209-1.078-0.313-1.563-0.313
			c-0.484,0-0.886,0.057-1.203,0.168c-1.128,0.365-1.693,1.271-1.693,2.719c0,0.811,0.421,1.482,1.264,2.014
			c0.842,0.533,2.082,0.799,3.718,0.799c2.019,0,3.791-0.539,5.318-1.619c0.699-0.496,1.259-1.08,1.681-1.754
			c0.42-0.676,0.63-1.412,0.63-2.207c0-1.176-0.548-2.2-1.644-3.074c-0.477-0.383-0.985-0.732-1.527-1.051
			c-0.54-0.317-1.048-0.635-1.524-0.952c-0.477-0.319-0.871-0.648-1.181-0.989s-0.466-0.735-0.466-1.181
			c0-0.7,0.254-1.272,0.764-1.717c0.477-0.429,1.009-0.643,1.598-0.643c0.477,0,0.834,0.207,1.073,0.621
			c0.11,0.189,0.19,0.408,0.239,0.655c0.047,0.246,0.071,0.592,0.071,1.036c0,0.445-0.12,0.906-0.358,1.383
			c0.445,0.159,0.985,0.238,1.621,0.238s1.216-0.206,1.74-0.618c0.604-0.494,0.905-1.13,0.905-1.908
			C-4.307-111.922-4.732-112.629-5.581-113.153z"/>
		<path fill="#FFFFFF" stroke="#000000" d="M62.57-101.112c-0.619-1.066-1.063-2.258-1.332-3.577
			c1.191-0.271,2.133-0.827,2.822-1.669c0.691-0.842,1.039-1.935,1.039-3.277c0-1.343-0.533-2.349-1.598-3.015
			c-1.066-0.669-2.748-1.002-5.045-1.002c-2.295,0-4.23,0.088-5.805,0.262l-2.91,15.665h5.105l2.74-14.425
			c0.082-0.015,0.191-0.023,0.334-0.023h0.525c1.35,0.063,2.025,0.897,2.025,2.504c0,1.288-0.293,2.237-0.883,2.848
			c-0.586,0.612-1.469,0.936-2.645,0.967h-0.168c0.098,2.559,0.596,4.649,1.502,6.27c0.43,0.746,0.916,1.324,1.455,1.729
			c0.541,0.406,1.156,0.607,1.848,0.607c0.693,0,1.279-0.146,1.764-0.439c0.486-0.295,0.848-0.777,1.086-1.443
			C63.763-99.452,63.144-100.112,62.57-101.112z"/>
		<polygon fill="#FFFFFF" stroke="#000000" points="-4.069,-97.727 1.131,-97.727 4.205,-113.463 -1.04,-113.463 		"/>
		<polygon fill="#FFFFFF" stroke="#000000" points="18.249,-113.463 16.271,-102.637 12.55,-113.463 7.424,-113.463 4.563,-97.727 
			7.185,-97.727 9.093,-108.146 12.526,-97.727 17.985,-97.727 20.895,-113.44 		"/>
		<path fill="#FFFFFF" stroke="#000000" d="M47.337-110.483c0.92,0,1.617-0.254,2.086-0.763s0.703-1.248,0.703-2.217H39.849
			l-2.932,15.735c0.332-0.031,0.604-0.059,0.813-0.082c0.203-0.023,0.57-0.037,1.096-0.037c0.523,0,1.645,0.137,3.359,0.406
			c0.875,0.125,1.598,0.189,2.172,0.189c1.002,0,1.818-0.227,2.455-0.678c0.635-0.455,0.953-1.109,0.953-1.967
			c0-0.621-0.15-1.123-0.453-1.504c-0.875,0.764-1.924,1.146-3.146,1.146c-0.715,0-1.264-0.025-1.646-0.074l0.857-4.505
			c0.051,0.047,0.289,0.152,0.717,0.31c0.43,0.16,0.99,0.238,1.682,0.238c0.693,0,1.244-0.234,1.656-0.704
			c0.414-0.469,0.619-1.125,0.619-1.967h-4.242l0.738-4.172C45.486-110.697,46.416-110.483,47.337-110.483z"/>
	</g>
</g>
</svg>
