<?xml version="1.0" encoding="utf-8"?>
<!-- Generator: Adobe Illustrator 16.0.0, SVG Export Plug-In . SVG Version: 6.00 Build 0)  -->
<!DOCTYPE svg PUBLIC "-//W3C//DTD SVG 1.1//EN" "http://www.w3.org/Graphics/SVG/1.1/DTD/svg11.dtd">
<svg version="1.1" id="Calque_1" xmlns="http://www.w3.org/2000/svg" xmlns:xlink="http://www.w3.org/1999/xlink" x="0px" y="0px"
	 width="14.17px" height="14.17px" viewBox="0 0 14.17 14.17" enable-background="new 0 0 14.17 14.17" xml:space="preserve">
<g transform="rotate(8.2548 130.17 162.99)">
	<path fill="#020202" d="M-10.487,19.169c-0.052-0.022-0.115-0.009-0.192,0.053c-0.541,0.414-1.178,0.474-1.644,0.542
		c-0.462,0.067-0.833,0.082-1.291,0.047c-0.419-0.033-0.694-0.068-0.941-0.138c-0.179-0.049-0.418-0.216-0.52-0.065
		c0.307,0.94,0.438,2.251,0.433,2.975c-0.008,1.346-0.091,2.325-0.216,3.46c-0.122,1.108-0.383,2.108-0.621,3.143
		c-0.17,0.826-0.569-0.008-0.847-0.183c-0.401-0.252-0.749-0.274-1.129-0.02c-0.38,0.255-0.588,0.638-0.675,1.243
		c-0.085,0.591,0.144,1.327,0.505,1.737c0.35,0.395,0.859,0.456,1.269,0.28c0.405-0.189,0.764-0.719,0.908-1.272
		c0.074-0.256,0.119-0.371,0.205-0.778c0.086-0.407,0.201-1.006,0.296-1.515c0.175-0.939,0.425-1.794,0.557-3.912
		c0.042-0.571,0.163-2.389,0.024-3.508c0.635,0.076,0.887,0.086,1.166,0.097c0.478,0.018,1.07-0.055,1.42-0.132
		c0.432-0.095,1.003-0.301,1.278-0.365c0.072,0.366,0.083,0.562,0.122,1.078c0.06,0.789,0.066,2.214,0.029,2.856
		c-0.062,1.101-0.25,2.954-0.45,4.009c-0.1,0.534-0.21,0.936-0.323,1.373c-0.153,0.397-0.526-0.269-0.766-0.42
		c-0.4-0.25-0.75-0.278-1.129-0.024c-0.38,0.254-0.591,0.64-0.679,1.247c-0.085,0.591,0.144,1.325,0.505,1.733
		c0.35,0.395,0.859,0.456,1.269,0.28c0.406-0.189,0.764-0.719,0.908-1.272c0.391-1.547,0.593-2.685,0.687-3.275
		c0.132-0.82,0.378-2.608,0.372-4.854c-0.002-0.42-0.019-1.57-0.1-2.516C-10.089,20.714-10.332,19.234-10.487,19.169L-10.487,19.169
		z"/>
	<g>
		
			<radialGradient id="SVGID_1_" cx="-292.6685" cy="-297.4656" r="0.1636" gradientTransform="matrix(10.4114 11.5341 -6.7638 14.3638 1017.4523 7677.9473)" gradientUnits="userSpaceOnUse">
			<stop  offset="0" style="stop-color:#989798"/>
			<stop  offset="1" style="stop-color:#989798;stop-opacity:0"/>
		</radialGradient>
		<path fill="url(#SVGID_1_)" d="M-16.67,30.979c-0.406,0.513-0.967,0.567-1.253,0.119c-0.285-0.448-0.187-1.228,0.22-1.741
			c0.407-0.511,0.968-0.565,1.253-0.117c0.284,0.446,0.188,1.222-0.216,1.734"/>
		
			<radialGradient id="SVGID_2_" cx="-311.2037" cy="-299.5733" r="0.1635" gradientTransform="matrix(2.5687 18.7677 -11.1884 3.7439 -2565.4641 6992.4316)" gradientUnits="userSpaceOnUse">
			<stop  offset="0" style="stop-color:#989798"/>
			<stop  offset="1" style="stop-color:#989798;stop-opacity:0"/>
		</radialGradient>
		<path fill="url(#SVGID_2_)" d="M-12.238,31.707c-0.406,0.513-0.968,0.565-1.253,0.117c-0.285-0.446-0.186-1.226,0.22-1.739
			c0.406-0.513,0.967-0.567,1.253-0.117c0.284,0.446,0.187,1.22-0.217,1.733"/>
	</g>
	
		<linearGradient id="SVGID_3_" gradientUnits="userSpaceOnUse" x1="-344.8286" y1="-373.5739" x2="-344.8292" y2="-373.5739" gradientTransform="matrix(242.9606 -2.479553e-004 1.296997e-004 85.2097 83801.3125 31850.3145)">
		<stop  offset="0" style="stop-color:#BDBDBD"/>
		<stop  offset="1" style="stop-color:#BDBDBD;stop-opacity:0"/>
	</linearGradient>
	<path fill="url(#SVGID_3_)" d="M-10.559,19.267c-0.025,0.007-0.053,0.022-0.086,0.051c-0.555,0.424-1.202,0.482-1.666,0.55
		c-0.465,0.066-0.841,0.082-1.3,0.046c-0.147-0.012-0.259-0.024-0.376-0.037c0.442,0.322,0.868,0.487,1.291,0.63
		c1.154,0.389,1.708,0.159,2.5,0.083c-0.039-0.265-0.087-0.574-0.145-0.832c-0.031-0.144-0.064-0.27-0.096-0.36
		c-0.015-0.046-0.032-0.078-0.045-0.101c-0.011-0.022-0.019-0.027-0.016-0.026C-10.514,19.265-10.535,19.261-10.559,19.267
		L-10.559,19.267z"/>
	
		<linearGradient id="SVGID_4_" gradientUnits="userSpaceOnUse" x1="-339.5079" y1="-381.2424" x2="-339.4938" y2="-381.2424" gradientTransform="matrix(65.3878 -3.528595e-005 5.645752e-004 552.2426 22184.5293 210563.0469)">
		<stop  offset="0" style="stop-color:#989798"/>
		<stop  offset="1" style="stop-color:#989798;stop-opacity:0"/>
	</linearGradient>
	<path fill="url(#SVGID_4_)" d="M-14.884,19.608c-0.031-0.004-0.057-0.002-0.093,0.002c-0.025,0.003-0.037,0.015-0.052,0.029
		c0.299,0.949,0.428,2.226,0.423,2.949c-0.008,1.349-0.09,2.333-0.216,3.47c-0.122,1.113-0.374,2.097-0.612,3.129
		c0.036-0.047,0.127-0.281,0.172-0.489c0.236-1.076,0.406-1.523,0.612-3.588c0-0.002,0-0.003,0-0.004l0.005-0.034
		c0-0.002,0-0.003,0-0.005c0.198-2.02,0.174-3.788-0.155-5.433C-14.832,19.622-14.861,19.61-14.884,19.608L-14.884,19.608z"/>
	
		<linearGradient id="SVGID_5_" gradientUnits="userSpaceOnUse" x1="-343.6761" y1="-381.1647" x2="-343.6781" y2="-381.1647" gradientTransform="matrix(60.0608 -7.820129e-005 5.798340e-004 528.0551 20637.9082 201292.2188)">
		<stop  offset="0" style="stop-color:#BDBDBD"/>
		<stop  offset="1" style="stop-color:#BDBDBD;stop-opacity:0"/>
	</linearGradient>
	<path fill="url(#SVGID_5_)" d="M-10.435,20.935c-0.002,0.001-0.002,0.002-0.003,0.004c-0.001-0.001-0.001-0.001-0.002-0.001
		c-0.002,0.002-0.002,0.003-0.003,0.005c-0.001,0.001-0.001,0.003,0,0.004c-0.001,0.001-0.003,0.003-0.002,0.004
		c0,0.002-0.001,0.003,0,0.004c0,0.002,0,0.003,0,0.004c0.051,0.288,0.067,0.505,0.102,0.952c0.06,0.791,0.065,2.219,0.028,2.865
		c-0.061,1.104-0.249,2.956-0.45,4.015c-0.092,0.491-0.189,0.872-0.293,1.272c-0.001,0.002-0.001,0.004-0.003,0.004
		c0,0.002,0.001,0.004,0.001,0.004c0,0.002-0.001,0.002,0,0.006c0.001,0,0.002,0.004,0.003,0.003c0,0.002,0.001,0.004,0,0.006
		c0.001,0,0.002,0.002,0.002,0.004c0.002,0,0.003,0,0.004-0.001c0,0.002,0.002,0.004,0.004,0.005c0.001,0,0.003,0,0.003,0
		s0.002,0,0.003,0c0.001,0,0.003-0.002,0.003-0.004c0,0,0.001,0,0.002,0c0.002,0,0.003-0.002,0.004-0.005
		c0.045-0.085,0.106-0.221,0.168-0.472c0.152-0.608,0.378-1.9,0.554-3.871l0.003-0.039c0.08-0.973,0.095-1.994,0.062-3.047
		c-0.016-0.527-0.043-0.992-0.085-1.314c-0.022-0.162-0.048-0.289-0.074-0.369c-0.004-0.009-0.005-0.013-0.006-0.017
		c-0.003-0.005-0.005-0.006-0.005-0.009c0-0.002,0-0.003-0.001-0.004c-0.001-0.002-0.002-0.003-0.004-0.004
		c-0.001,0-0.003,0-0.004,0c0-0.002-0.002-0.004-0.004-0.005c0,0-0.001,0-0.003,0C-10.433,20.935-10.434,20.935-10.435,20.935
		L-10.435,20.935z"/>
</g>
</svg>
